<svg xmlns="http://www.w3.org/2000/svg" viewBox="0 0 800 1000" role="img">
  <defs>
    <linearGradient id="bg" x1="0" y1="0" x2="0" y2="1">
      <stop stop-color="#e9e2d6"/>
      <stop offset="1" stop-color="#b8c3c2"/>
    </linearGradient>
    <linearGradient id="ceramic" x1="0" y1="0" x2="1" y2="0">
      <stop stop-color="#cfc8bd"/>
      <stop offset=".42" stop-color="#f7f1e7"/>
      <stop offset="1" stop-color="#aaa79f"/>
    </linearGradient>
    <filter id="shadow"><feDropShadow dx="0" dy="30" stdDeviation="32" flood-color="#485257" flood-opacity=".3"/></filter>
    <filter id="soft"><feGaussianBlur stdDeviation="14"/></filter>
  </defs>
  <rect width="800" height="1000" fill="url(#bg)"/>
  <circle cx="610" cy="156" r="180" fill="#fff7df" opacity=".62" filter="url(#soft)"/>
  <path d="M-80 830C100 690 234 784 373 848c142 66 302 48 507-106v258H-80Z" fill="#edf0ed" opacity=".9"/>
  <path d="M-60 916C119 772 284 842 407 905c105 54 262 48 453-57" fill="none" stroke="#a4b6b6" stroke-width="16" opacity=".38"/>
  <g stroke="#778d8b" fill="none" opacity=".72">
    <path d="M132 719c52-165 77-312 62-474" stroke-width="6"/>
    <path d="M194 325c-69 4-98-45-74-87 70 2 95 42 74 87Z" fill="#ccd8d3" stroke-width="3"/>
    <path d="M189 434c64-11 103 24 95 69-64 9-100-21-95-69Z" fill="#d6dfda" stroke-width="3"/>
  </g>
  <g filter="url(#shadow)">
    <path d="M252 414h316l-28 394c-3 42-35 70-78 70H358c-43 0-75-28-78-70Z" fill="url(#ceramic)"/>
    <ellipse cx="410" cy="420" rx="158" ry="35" fill="#a8aaa4"/>
    <ellipse cx="410" cy="416" rx="137" ry="23" fill="#f2e7d2"/>
    <rect x="406" y="346" width="7" height="72" rx="4" fill="#514238"/>
    <path d="M409 334c-34-46 4-96 18-129 35 59 38 103-18 129Z" fill="#f6a856"/>
    <path d="M413 322c-14-25 4-48 11-64 14 29 13 49-11 64Z" fill="#fff7d5"/>
    <path d="M322 598h176" stroke="#8a8276" stroke-width="2"/>
    <path d="M350 654c38-28 82-28 120 0-38 30-82 30-120 0Z" fill="none" stroke="#8a8276" stroke-width="3"/>
  </g>
</svg>
