<svg xmlns="http://www.w3.org/2000/svg" viewBox="0 0 800 1000" role="img">
  <defs>
    <linearGradient id="bg" x1="0" y1="0" x2="1" y2="1">
      <stop stop-color="#1b111b"/>
      <stop offset="1" stop-color="#6e3448"/>
    </linearGradient>
    <linearGradient id="glass" x1="0" y1="0" x2="1" y2="0">
      <stop stop-color="#572335"/>
      <stop offset=".48" stop-color="#9b5368"/>
      <stop offset="1" stop-color="#3d1828"/>
    </linearGradient>
    <radialGradient id="glow">
      <stop stop-color="#ffbd69" stop-opacity=".65"/>
      <stop offset="1" stop-color="#ff9c4e" stop-opacity="0"/>
    </radialGradient>
    <filter id="blur"><feGaussianBlur stdDeviation="18"/></filter>
    <filter id="shadow"><feDropShadow dx="0" dy="28" stdDeviation="28" flood-opacity=".45"/></filter>
  </defs>
  <rect width="800" height="1000" fill="url(#bg)"/>
  <circle cx="402" cy="355" r="270" fill="url(#glow)" filter="url(#blur)"/>
  <g opacity=".78" fill="#9f4f69">
    <ellipse cx="116" cy="852" rx="88" ry="32" transform="rotate(-24 116 852)"/>
    <ellipse cx="196" cy="902" rx="86" ry="30" transform="rotate(19 196 902)"/>
    <ellipse cx="682" cy="842" rx="92" ry="34" transform="rotate(27 682 842)"/>
    <ellipse cx="624" cy="917" rx="82" ry="28" transform="rotate(-18 624 917)"/>
  </g>
  <g filter="url(#shadow)">
    <rect x="240" y="394" width="320" height="430" rx="42" fill="url(#glass)"/>
    <ellipse cx="400" cy="410" rx="160" ry="34" fill="#d99aa8"/>
    <ellipse cx="400" cy="414" rx="137" ry="23" fill="#ead9c5"/>
    <rect x="397" y="338" width="7" height="78" rx="4" fill="#3f2a23"/>
    <path d="M400 324c-42-50 5-108 18-141 42 68 45 113-18 141Z" fill="#ff9c45"/>
    <path d="M405 309c-16-28 4-55 11-72 17 33 16 55-11 72Z" fill="#fff2c2"/>
    <rect x="280" y="557" width="240" height="145" rx="3" fill="#e7d6c1"/>
    <circle cx="400" cy="629" r="34" fill="none" stroke="#6e3448" stroke-width="2"/>
    <path d="M400 610c22 19 20 37 0 42-20-5-22-23 0-42Z" fill="#8f405c"/>
  </g>
  <path d="M75 955c123-178 224-90 325-36 120 65 212 20 325-48" fill="none" stroke="#bda06e" stroke-width="3" opacity=".44"/>
</svg>
