<svg xmlns="http://www.w3.org/2000/svg" viewBox="0 0 800 1000" role="img">
  <defs>
    <linearGradient id="bg" x1="0" y1="0" x2="1" y2="1">
      <stop stop-color="#100c0c"/>
      <stop offset=".55" stop-color="#36231d"/>
      <stop offset="1" stop-color="#76503b"/>
    </linearGradient>
    <linearGradient id="jar" x1="0" y1="0" x2="1" y2="0">
      <stop stop-color="#0e0d0e"/>
      <stop offset=".48" stop-color="#3c3430"/>
      <stop offset="1" stop-color="#090909"/>
    </linearGradient>
    <radialGradient id="glow"><stop stop-color="#e39447" stop-opacity=".65"/><stop offset="1" stop-color="#e39447" stop-opacity="0"/></radialGradient>
    <filter id="soft"><feGaussianBlur stdDeviation="20"/></filter>
    <filter id="shadow"><feDropShadow dx="0" dy="28" stdDeviation="30" flood-opacity=".6"/></filter>
  </defs>
  <rect width="800" height="1000" fill="url(#bg)"/>
  <circle cx="396" cy="340" r="260" fill="url(#glow)" filter="url(#soft)"/>
  <g fill="#6e402a" stroke="#a06c48" stroke-width="3">
    <ellipse cx="118" cy="874" rx="38" ry="55" transform="rotate(-28 118 874)"/>
    <ellipse cx="205" cy="922" rx="37" ry="54" transform="rotate(38 205 922)"/>
    <ellipse cx="687" cy="875" rx="39" ry="57" transform="rotate(31 687 875)"/>
    <ellipse cx="599" cy="935" rx="37" ry="53" transform="rotate(-35 599 935)"/>
    <path d="M99 834c24 27 35 52 39 78M182 882c13 37 28 61 48 79M665 835c-20 31-28 57-27 84M619 896c-22 29-35 54-40 76" fill="none"/>
  </g>
  <g filter="url(#shadow)">
    <rect x="234" y="390" width="332" height="456" rx="34" fill="url(#jar)"/>
    <ellipse cx="400" cy="400" rx="166" ry="35" fill="#151313"/>
    <ellipse cx="400" cy="402" rx="142" ry="23" fill="#d8b27e"/>
    <rect x="396" y="334" width="8" height="68" rx="4" fill="#33231b"/>
    <path d="M400 320c-38-48 2-102 17-135 39 64 43 108-17 135Z" fill="#e97b2f"/>
    <path d="M405 306c-15-25 3-51 10-69 16 31 16 52-10 69Z" fill="#fff0bd"/>
    <rect x="284" y="551" width="232" height="154" rx="4" fill="#bda06e"/>
    <circle cx="400" cy="628" r="42" fill="#2a1b18"/>
    <path d="M381 599c30 19 39 49 17 65-30-18-38-48-17-65Z" fill="#8c5a3b"/>
    <path d="M383 604c15 20 20 39 14 57" fill="none" stroke="#d2a074" stroke-width="3"/>
  </g>
</svg>
